<svg width="54" height="57" viewBox="0 0 54 57" fill="none" xmlns="http://www.w3.org/2000/svg">
<path d="M53.9092 25.0146C53.9092 26.4274 53.7952 27.8516 53.5674 29.2871C53.3623 30.6999 53.0433 32.0557 52.6104 33.3545C52.2002 34.6305 51.6647 35.8268 51.0039 36.9434C50.3659 38.0371 49.6139 38.9941 48.748 39.8145C47.8822 40.6348 46.891 41.2842 45.7744 41.7627C44.6807 42.2184 43.473 42.4463 42.1514 42.4463C41.126 42.4463 40.1917 42.2754 39.3486 41.9336C38.5283 41.5918 37.8219 41.1361 37.2295 40.5664C36.637 39.9967 36.1471 39.3473 35.7598 38.6182C35.3952 37.8662 35.1445 37.0915 35.0078 36.2939H34.8711C34.4609 37.137 33.9482 37.9346 33.333 38.6865C32.7178 39.4385 32 40.0993 31.1797 40.6689C30.3822 41.2158 29.4707 41.6488 28.4453 41.9678C27.4427 42.2868 26.3376 42.4463 25.1299 42.4463C23.3753 42.4463 21.8145 42.1273 20.4473 41.4893C19.1029 40.8512 17.9635 39.9626 17.0293 38.8232C16.0951 37.6611 15.3773 36.2712 14.876 34.6533C14.3975 33.0355 14.1582 31.2467 14.1582 29.2871C14.1582 26.9857 14.4886 24.8779 15.1494 22.9639C15.833 21.0498 16.8014 19.3978 18.0547 18.0078C19.3307 16.6178 20.8688 15.5355 22.6689 14.7607C24.4691 13.986 26.4857 13.5986 28.7188 13.5986C29.7441 13.5986 30.7695 13.6442 31.7949 13.7354C32.8203 13.8265 33.8001 13.9518 34.7344 14.1113C35.6686 14.2708 36.5231 14.4531 37.2979 14.6582C38.0954 14.8405 38.7562 15.0228 39.2803 15.2051L38.4941 29.4238C38.4714 29.9251 38.4486 30.3353 38.4258 30.6543C38.4258 30.9505 38.4258 31.1898 38.4258 31.3721V32.0215C38.4258 33.2292 38.5397 34.2204 38.7676 34.9951C39.0182 35.7699 39.3372 36.3851 39.7246 36.8408C40.112 37.2965 40.5449 37.6156 41.0234 37.7979C41.5247 37.9574 42.0374 38.0371 42.5615 38.0371C43.6097 38.0371 44.5326 37.6953 45.3301 37.0117C46.1276 36.3053 46.7884 35.3597 47.3125 34.1748C47.8594 32.9899 48.2695 31.5999 48.543 30.0049C48.8164 28.4098 48.9531 26.7236 48.9531 24.9463C48.9531 21.7106 48.4632 18.8395 47.4834 16.333C46.5036 13.8037 45.1478 11.6732 43.416 9.94141C41.6842 8.20964 39.6221 6.89941 37.2295 6.01074C34.8597 5.09928 32.2734 4.64355 29.4707 4.64355C25.6198 4.64355 22.2246 5.28158 19.2852 6.55762C16.3457 7.81087 13.8734 9.57682 11.8682 11.8555C9.88574 14.1113 8.38184 16.8001 7.35645 19.9219C6.33105 23.0208 5.81836 26.416 5.81836 30.1074C5.81836 33.5482 6.2627 36.6016 7.15137 39.2676C8.06283 41.9336 9.38444 44.1781 11.1162 46.001C12.8708 47.8239 15.0355 49.2025 17.6104 50.1367C20.208 51.071 23.1816 51.5381 26.5312 51.5381C27.9212 51.5381 29.2884 51.4583 30.6328 51.2988C32 51.1393 33.3102 50.9229 34.5635 50.6494C35.8395 50.376 37.0472 50.0684 38.1865 49.7266C39.3258 49.362 40.3854 48.986 41.3652 48.5986V53.418C39.4056 54.2839 37.1953 54.9674 34.7344 55.4688C32.2734 55.9701 29.5618 56.2207 26.5996 56.2207C22.5208 56.2207 18.875 55.6396 15.6621 54.4775C12.472 53.3154 9.76042 51.6292 7.52734 49.4189C5.31706 47.1859 3.63086 44.4743 2.46875 41.2842C1.30664 38.0713 0.725586 34.4255 0.725586 30.3467C0.725586 26.0628 1.39779 22.0752 2.74219 18.3838C4.08659 14.6696 6.00065 11.4567 8.48438 8.74512C10.9909 6.03353 14.0101 3.90299 17.542 2.35352C21.0967 0.804036 25.0729 0.0292969 29.4707 0.0292969C33.0254 0.0292969 36.2952 0.610352 39.2803 1.77246C42.2653 2.91178 44.8402 4.5638 47.0049 6.72852C49.1924 8.87044 50.89 11.4909 52.0977 14.5898C53.3053 17.666 53.9092 21.141 53.9092 25.0146ZM19.627 29.4238C19.627 32.4544 20.1966 34.6533 21.3359 36.0205C22.498 37.3649 24.0475 38.0371 25.9844 38.0371C27.2376 38.0371 28.3086 37.7865 29.1973 37.2852C30.0859 36.7611 30.8151 36.0319 31.3848 35.0977C31.9544 34.1406 32.3874 33.0127 32.6836 31.7139C32.9798 30.3923 33.1735 28.9453 33.2646 27.373L33.7432 18.7256C33.1051 18.5433 32.3418 18.3838 31.4531 18.2471C30.5872 18.0876 29.6758 18.0078 28.7188 18.0078C27.0326 18.0078 25.6084 18.3382 24.4463 18.999C23.307 19.6598 22.3727 20.5257 21.6436 21.5967C20.9372 22.6676 20.4245 23.8867 20.1055 25.2539C19.7865 26.6211 19.627 28.0111 19.627 29.4238Z" fill="white"/>
</svg>
