<svg width="129" height="113" viewBox="0 0 129 113" fill="none" xmlns="http://www.w3.org/2000/svg">
<path d="M97.6216 99.6487H0V2.1588H97.6216V99.6487Z" fill="black"/>
<path d="M91.6235 17.4788H80.3935L63.0953 67.404L45.6158 17.4788H34.2949L57.6612 84.0462H68.4386L91.6235 17.4788ZM69.0726 38.6424L71.6989 31.3168H54.4008L56.9367 38.6424H69.0726Z" fill="#B77B99"/>
<path d="M32.0757 50.2074H43.9297L60.3162 11.2114H32.0757V50.2074Z" fill="black"/>
<path d="M41.1406 66.2237L50.8002 66.1812L63.4541 30.0132H55.7839L41.1406 66.2237Z" fill="black"/>
<path d="M63.7319 17.4788H52.5017L35.2034 67.404L17.724 17.4788H6.40308L29.7694 84.0462H40.5468L63.7319 17.4788ZM41.1808 38.6424L43.8072 31.3168H26.5089L29.0448 38.6424H41.1808Z" fill="white"/>
</svg>
