<svg width="550" height="550" viewBox="0 0 550 550" fill="none" xmlns="http://www.w3.org/2000/svg">
<circle cx="275" cy="275" r="275" fill="black"/>
<g filter="url(#filter0_d_417_82)">
<g filter="url(#filter1_d_417_82)">
<path fill-rule="evenodd" clip-rule="evenodd" d="M279.027 121.129L289.115 92.1839L300.222 123.907L331.242 34.3801H351.38L309.804 153.75H290.478L279.027 121.129ZM296.035 72.3313L300.613 59.1947H315.65L310.941 72.3313H296.035Z" fill="#B77B99"/>
</g>
<g filter="url(#filter2_d_417_82)">
<path d="M301.804 34H281.665L250.646 123.527L219.301 34H199L240.901 153.37H260.228L301.804 34ZM261.364 71.9511L266.074 58.8146H235.055L239.602 71.9511H261.364Z" fill="white"/>
</g>
<g filter="url(#filter3_d_417_82)">
<path fill-rule="evenodd" clip-rule="evenodd" d="M381.228 385.654L394.562 413.255L364.276 398.677L405.647 483.916L391.408 498.156L336.398 384.35L350.064 370.684L381.228 385.654ZM403.707 432.186L409.758 444.712L399.125 455.345L393.167 442.726L403.707 432.186Z" fill="#B77B99"/>
</g>
<g filter="url(#filter4_d_417_82)">
<path d="M426.732 463.369L440.972 449.129L399.601 363.89L485.07 405.031L499.425 390.676L385.389 335.897L371.723 349.563L426.732 463.369ZM428.491 407.939L434.45 420.558L456.384 398.624L443.88 392.55L428.491 407.939Z" fill="white"/>
</g>
<g filter="url(#filter5_d_417_82)">
<path fill-rule="evenodd" clip-rule="evenodd" d="M386.654 169.197L414.255 155.863L399.677 186.149L484.916 144.778L499.156 159.017L385.35 214.026L371.684 200.361L386.654 169.197ZM433.186 146.718L445.712 140.666L456.345 151.299L443.726 157.258L433.186 146.718Z" fill="#B77B99"/>
</g>
<g filter="url(#filter6_d_417_82)">
<path d="M464.369 123.693L450.129 109.453L364.89 150.824L406.031 65.3549L391.676 51L336.897 165.036L350.563 178.702L464.369 123.693ZM408.939 121.934L421.558 115.975L399.624 94.0408L393.55 106.545L408.939 121.934Z" fill="white"/>
</g>
<g filter="url(#filter7_d_417_82)">
<path fill-rule="evenodd" clip-rule="evenodd" d="M169.197 163.771L155.863 136.17L186.149 150.748L144.778 65.5083L159.017 51.2687L214.026 165.075L200.361 178.74L169.197 163.771ZM146.718 117.239L140.666 104.713L151.3 94.0797L157.258 106.699L146.718 117.239Z" fill="#B77B99"/>
</g>
<g filter="url(#filter8_d_417_82)">
<path d="M123.693 86.0555L109.453 100.296L150.824 185.535L65.3549 144.394L51 158.749L165.036 213.528L178.702 199.862L123.693 86.0555ZM121.934 141.486L115.975 128.867L94.0408 150.801L106.545 156.874L121.934 141.486Z" fill="white"/>
</g>
<g filter="url(#filter9_d_417_82)">
<path fill-rule="evenodd" clip-rule="evenodd" d="M428.621 279.027L457.567 289.115L425.843 300.222L515.37 331.242V351.379L396 309.804V290.477L428.621 279.027ZM477.419 296.034L490.556 300.613V315.65L477.419 310.941V296.034Z" fill="#B77B99"/>
</g>
<g filter="url(#filter10_d_417_82)">
<path d="M515.75 301.803V281.665L426.223 250.645L515.75 219.301V199L396.38 240.901V260.227L515.75 301.803ZM477.799 261.364L490.936 266.074V235.054L477.799 239.602V261.364Z" fill="white"/>
</g>
<g filter="url(#filter11_d_417_82)">
<path fill-rule="evenodd" clip-rule="evenodd" d="M271.353 428.621L261.264 457.567L250.158 425.843L219.138 515.37H199L240.576 396H259.902L271.353 428.621ZM254.345 477.419L249.767 490.556H234.729L239.439 477.419H254.345Z" fill="#B77B99"/>
</g>
<g filter="url(#filter12_d_417_82)">
<path d="M248.576 515.75H268.714L299.734 426.223L331.079 515.75H351.379L309.478 396.38H290.152L248.576 515.75ZM289.015 477.799L284.305 490.936H315.325L310.778 477.799H289.015Z" fill="white"/>
</g>
<g filter="url(#filter13_d_417_82)">
<path fill-rule="evenodd" clip-rule="evenodd" d="M121.129 271.353L92.1839 261.264L123.907 250.158L34.3801 219.138L34.3801 199L153.75 240.576V259.902L121.129 271.353ZM72.3313 254.345L59.1947 249.767V234.729L72.3313 239.439V254.345Z" fill="#B77B99"/>
</g>
<g filter="url(#filter14_d_417_82)">
<path d="M34 248.576V268.714L123.527 299.734L34 331.079V351.379L153.37 309.478V290.152L34 248.576ZM71.9511 289.015L58.8146 284.305V315.325L71.9511 310.778V289.015Z" fill="white"/>
</g>
<g filter="url(#filter15_d_417_82)">
<path fill-rule="evenodd" clip-rule="evenodd" d="M163.771 381.227L136.17 394.561L150.748 364.276L65.5084 405.647L51.2688 391.407L165.075 336.398L178.741 350.064L163.771 381.227ZM117.239 403.707L104.713 409.758L94.0798 399.125L106.699 393.166L117.239 403.707Z" fill="#B77B99"/>
</g>
<g filter="url(#filter16_d_417_82)">
<path d="M86.0555 426.732L100.296 440.972L185.535 399.601L144.394 485.07L158.749 499.425L213.528 385.389L199.862 371.723L86.0555 426.732ZM141.486 428.491L128.867 434.45L150.801 456.384L156.874 443.88L141.486 428.491Z" fill="white"/>
</g>
</g>
<defs>
<filter id="filter0_d_417_82" x="24" y="28" width="501.75" height="501.75" filterUnits="userSpaceOnUse" color-interpolation-filters="sRGB">
<feFlood flood-opacity="0" result="BackgroundImageFix"/>
<feColorMatrix in="SourceAlpha" type="matrix" values="0 0 0 0 0 0 0 0 0 0 0 0 0 0 0 0 0 0 127 0" result="hardAlpha"/>
<feOffset dy="4"/>
<feGaussianBlur stdDeviation="5"/>
<feComposite in2="hardAlpha" operator="out"/>
<feColorMatrix type="matrix" values="0 0 0 0 0 0 0 0 0 0 0 0 0 0 0 0 0 0 0.25 0"/>
<feBlend mode="normal" in2="BackgroundImageFix" result="effect1_dropShadow_417_82"/>
<feBlend mode="normal" in="SourceGraphic" in2="effect1_dropShadow_417_82" result="shape"/>
</filter>
<filter id="filter1_d_417_82" x="259.027" y="14.3801" width="112.353" height="159.37" filterUnits="userSpaceOnUse" color-interpolation-filters="sRGB">
<feFlood flood-opacity="0" result="BackgroundImageFix"/>
<feColorMatrix in="SourceAlpha" type="matrix" values="0 0 0 0 0 0 0 0 0 0 0 0 0 0 0 0 0 0 127 0" result="hardAlpha"/>
<feOffset/>
<feGaussianBlur stdDeviation="10"/>
<feComposite in2="hardAlpha" operator="out"/>
<feColorMatrix type="matrix" values="0 0 0 0 0.716667 0 0 0 0 0.480764 0 0 0 0 0.598715 0 0 0 1 0"/>
<feBlend mode="normal" in2="BackgroundImageFix" result="effect1_dropShadow_417_82"/>
<feBlend mode="normal" in="SourceGraphic" in2="effect1_dropShadow_417_82" result="shape"/>
</filter>
<filter id="filter2_d_417_82" x="179" y="14" width="142.803" height="159.37" filterUnits="userSpaceOnUse" color-interpolation-filters="sRGB">
<feFlood flood-opacity="0" result="BackgroundImageFix"/>
<feColorMatrix in="SourceAlpha" type="matrix" values="0 0 0 0 0 0 0 0 0 0 0 0 0 0 0 0 0 0 127 0" result="hardAlpha"/>
<feOffset/>
<feGaussianBlur stdDeviation="10"/>
<feComposite in2="hardAlpha" operator="out"/>
<feColorMatrix type="matrix" values="0 0 0 0 1 0 0 0 0 1 0 0 0 0 1 0 0 0 1 0"/>
<feBlend mode="normal" in2="BackgroundImageFix" result="effect1_dropShadow_417_82"/>
<feBlend mode="normal" in="SourceGraphic" in2="effect1_dropShadow_417_82" result="shape"/>
</filter>
<filter id="filter3_d_417_82" x="316.398" y="350.684" width="113.36" height="167.472" filterUnits="userSpaceOnUse" color-interpolation-filters="sRGB">
<feFlood flood-opacity="0" result="BackgroundImageFix"/>
<feColorMatrix in="SourceAlpha" type="matrix" values="0 0 0 0 0 0 0 0 0 0 0 0 0 0 0 0 0 0 127 0" result="hardAlpha"/>
<feOffset/>
<feGaussianBlur stdDeviation="10"/>
<feComposite in2="hardAlpha" operator="out"/>
<feColorMatrix type="matrix" values="0 0 0 0 0.716667 0 0 0 0 0.480764 0 0 0 0 0.598715 0 0 0 1 0"/>
<feBlend mode="normal" in2="BackgroundImageFix" result="effect1_dropShadow_417_82"/>
<feBlend mode="normal" in="SourceGraphic" in2="effect1_dropShadow_417_82" result="shape"/>
</filter>
<filter id="filter4_d_417_82" x="351.723" y="315.897" width="167.702" height="167.472" filterUnits="userSpaceOnUse" color-interpolation-filters="sRGB">
<feFlood flood-opacity="0" result="BackgroundImageFix"/>
<feColorMatrix in="SourceAlpha" type="matrix" values="0 0 0 0 0 0 0 0 0 0 0 0 0 0 0 0 0 0 127 0" result="hardAlpha"/>
<feOffset/>
<feGaussianBlur stdDeviation="10"/>
<feComposite in2="hardAlpha" operator="out"/>
<feColorMatrix type="matrix" values="0 0 0 0 1 0 0 0 0 1 0 0 0 0 1 0 0 0 1 0"/>
<feBlend mode="normal" in2="BackgroundImageFix" result="effect1_dropShadow_417_82"/>
<feBlend mode="normal" in="SourceGraphic" in2="effect1_dropShadow_417_82" result="shape"/>
</filter>
<filter id="filter5_d_417_82" x="351.684" y="120.666" width="167.472" height="113.36" filterUnits="userSpaceOnUse" color-interpolation-filters="sRGB">
<feFlood flood-opacity="0" result="BackgroundImageFix"/>
<feColorMatrix in="SourceAlpha" type="matrix" values="0 0 0 0 0 0 0 0 0 0 0 0 0 0 0 0 0 0 127 0" result="hardAlpha"/>
<feOffset/>
<feGaussianBlur stdDeviation="10"/>
<feComposite in2="hardAlpha" operator="out"/>
<feColorMatrix type="matrix" values="0 0 0 0 0.716667 0 0 0 0 0.480764 0 0 0 0 0.598715 0 0 0 1 0"/>
<feBlend mode="normal" in2="BackgroundImageFix" result="effect1_dropShadow_417_82"/>
<feBlend mode="normal" in="SourceGraphic" in2="effect1_dropShadow_417_82" result="shape"/>
</filter>
<filter id="filter6_d_417_82" x="316.897" y="31" width="167.472" height="167.702" filterUnits="userSpaceOnUse" color-interpolation-filters="sRGB">
<feFlood flood-opacity="0" result="BackgroundImageFix"/>
<feColorMatrix in="SourceAlpha" type="matrix" values="0 0 0 0 0 0 0 0 0 0 0 0 0 0 0 0 0 0 127 0" result="hardAlpha"/>
<feOffset/>
<feGaussianBlur stdDeviation="10"/>
<feComposite in2="hardAlpha" operator="out"/>
<feColorMatrix type="matrix" values="0 0 0 0 1 0 0 0 0 1 0 0 0 0 1 0 0 0 1 0"/>
<feBlend mode="normal" in2="BackgroundImageFix" result="effect1_dropShadow_417_82"/>
<feBlend mode="normal" in="SourceGraphic" in2="effect1_dropShadow_417_82" result="shape"/>
</filter>
<filter id="filter7_d_417_82" x="120.666" y="31.2688" width="113.36" height="167.472" filterUnits="userSpaceOnUse" color-interpolation-filters="sRGB">
<feFlood flood-opacity="0" result="BackgroundImageFix"/>
<feColorMatrix in="SourceAlpha" type="matrix" values="0 0 0 0 0 0 0 0 0 0 0 0 0 0 0 0 0 0 127 0" result="hardAlpha"/>
<feOffset/>
<feGaussianBlur stdDeviation="10"/>
<feComposite in2="hardAlpha" operator="out"/>
<feColorMatrix type="matrix" values="0 0 0 0 0.716667 0 0 0 0 0.480764 0 0 0 0 0.598715 0 0 0 1 0"/>
<feBlend mode="normal" in2="BackgroundImageFix" result="effect1_dropShadow_417_82"/>
<feBlend mode="normal" in="SourceGraphic" in2="effect1_dropShadow_417_82" result="shape"/>
</filter>
<filter id="filter8_d_417_82" x="31" y="66.0554" width="167.702" height="167.472" filterUnits="userSpaceOnUse" color-interpolation-filters="sRGB">
<feFlood flood-opacity="0" result="BackgroundImageFix"/>
<feColorMatrix in="SourceAlpha" type="matrix" values="0 0 0 0 0 0 0 0 0 0 0 0 0 0 0 0 0 0 127 0" result="hardAlpha"/>
<feOffset/>
<feGaussianBlur stdDeviation="10"/>
<feComposite in2="hardAlpha" operator="out"/>
<feColorMatrix type="matrix" values="0 0 0 0 1 0 0 0 0 1 0 0 0 0 1 0 0 0 1 0"/>
<feBlend mode="normal" in2="BackgroundImageFix" result="effect1_dropShadow_417_82"/>
<feBlend mode="normal" in="SourceGraphic" in2="effect1_dropShadow_417_82" result="shape"/>
</filter>
<filter id="filter9_d_417_82" x="376" y="259.027" width="159.37" height="112.353" filterUnits="userSpaceOnUse" color-interpolation-filters="sRGB">
<feFlood flood-opacity="0" result="BackgroundImageFix"/>
<feColorMatrix in="SourceAlpha" type="matrix" values="0 0 0 0 0 0 0 0 0 0 0 0 0 0 0 0 0 0 127 0" result="hardAlpha"/>
<feOffset/>
<feGaussianBlur stdDeviation="10"/>
<feComposite in2="hardAlpha" operator="out"/>
<feColorMatrix type="matrix" values="0 0 0 0 0.716667 0 0 0 0 0.480764 0 0 0 0 0.598715 0 0 0 1 0"/>
<feBlend mode="normal" in2="BackgroundImageFix" result="effect1_dropShadow_417_82"/>
<feBlend mode="normal" in="SourceGraphic" in2="effect1_dropShadow_417_82" result="shape"/>
</filter>
<filter id="filter10_d_417_82" x="376.38" y="179" width="159.37" height="142.803" filterUnits="userSpaceOnUse" color-interpolation-filters="sRGB">
<feFlood flood-opacity="0" result="BackgroundImageFix"/>
<feColorMatrix in="SourceAlpha" type="matrix" values="0 0 0 0 0 0 0 0 0 0 0 0 0 0 0 0 0 0 127 0" result="hardAlpha"/>
<feOffset/>
<feGaussianBlur stdDeviation="10"/>
<feComposite in2="hardAlpha" operator="out"/>
<feColorMatrix type="matrix" values="0 0 0 0 1 0 0 0 0 1 0 0 0 0 1 0 0 0 1 0"/>
<feBlend mode="normal" in2="BackgroundImageFix" result="effect1_dropShadow_417_82"/>
<feBlend mode="normal" in="SourceGraphic" in2="effect1_dropShadow_417_82" result="shape"/>
</filter>
<filter id="filter11_d_417_82" x="179" y="376" width="112.353" height="159.37" filterUnits="userSpaceOnUse" color-interpolation-filters="sRGB">
<feFlood flood-opacity="0" result="BackgroundImageFix"/>
<feColorMatrix in="SourceAlpha" type="matrix" values="0 0 0 0 0 0 0 0 0 0 0 0 0 0 0 0 0 0 127 0" result="hardAlpha"/>
<feOffset/>
<feGaussianBlur stdDeviation="10"/>
<feComposite in2="hardAlpha" operator="out"/>
<feColorMatrix type="matrix" values="0 0 0 0 0.716667 0 0 0 0 0.480764 0 0 0 0 0.598715 0 0 0 1 0"/>
<feBlend mode="normal" in2="BackgroundImageFix" result="effect1_dropShadow_417_82"/>
<feBlend mode="normal" in="SourceGraphic" in2="effect1_dropShadow_417_82" result="shape"/>
</filter>
<filter id="filter12_d_417_82" x="228.576" y="376.38" width="142.803" height="159.37" filterUnits="userSpaceOnUse" color-interpolation-filters="sRGB">
<feFlood flood-opacity="0" result="BackgroundImageFix"/>
<feColorMatrix in="SourceAlpha" type="matrix" values="0 0 0 0 0 0 0 0 0 0 0 0 0 0 0 0 0 0 127 0" result="hardAlpha"/>
<feOffset/>
<feGaussianBlur stdDeviation="10"/>
<feComposite in2="hardAlpha" operator="out"/>
<feColorMatrix type="matrix" values="0 0 0 0 1 0 0 0 0 1 0 0 0 0 1 0 0 0 1 0"/>
<feBlend mode="normal" in2="BackgroundImageFix" result="effect1_dropShadow_417_82"/>
<feBlend mode="normal" in="SourceGraphic" in2="effect1_dropShadow_417_82" result="shape"/>
</filter>
<filter id="filter13_d_417_82" x="14.3801" y="179" width="159.37" height="112.353" filterUnits="userSpaceOnUse" color-interpolation-filters="sRGB">
<feFlood flood-opacity="0" result="BackgroundImageFix"/>
<feColorMatrix in="SourceAlpha" type="matrix" values="0 0 0 0 0 0 0 0 0 0 0 0 0 0 0 0 0 0 127 0" result="hardAlpha"/>
<feOffset/>
<feGaussianBlur stdDeviation="10"/>
<feComposite in2="hardAlpha" operator="out"/>
<feColorMatrix type="matrix" values="0 0 0 0 0.716667 0 0 0 0 0.480764 0 0 0 0 0.598715 0 0 0 1 0"/>
<feBlend mode="normal" in2="BackgroundImageFix" result="effect1_dropShadow_417_82"/>
<feBlend mode="normal" in="SourceGraphic" in2="effect1_dropShadow_417_82" result="shape"/>
</filter>
<filter id="filter14_d_417_82" x="14" y="228.576" width="159.37" height="142.803" filterUnits="userSpaceOnUse" color-interpolation-filters="sRGB">
<feFlood flood-opacity="0" result="BackgroundImageFix"/>
<feColorMatrix in="SourceAlpha" type="matrix" values="0 0 0 0 0 0 0 0 0 0 0 0 0 0 0 0 0 0 127 0" result="hardAlpha"/>
<feOffset/>
<feGaussianBlur stdDeviation="10"/>
<feComposite in2="hardAlpha" operator="out"/>
<feColorMatrix type="matrix" values="0 0 0 0 1 0 0 0 0 1 0 0 0 0 1 0 0 0 1 0"/>
<feBlend mode="normal" in2="BackgroundImageFix" result="effect1_dropShadow_417_82"/>
<feBlend mode="normal" in="SourceGraphic" in2="effect1_dropShadow_417_82" result="shape"/>
</filter>
<filter id="filter15_d_417_82" x="31.2688" y="316.398" width="167.472" height="113.36" filterUnits="userSpaceOnUse" color-interpolation-filters="sRGB">
<feFlood flood-opacity="0" result="BackgroundImageFix"/>
<feColorMatrix in="SourceAlpha" type="matrix" values="0 0 0 0 0 0 0 0 0 0 0 0 0 0 0 0 0 0 127 0" result="hardAlpha"/>
<feOffset/>
<feGaussianBlur stdDeviation="10"/>
<feComposite in2="hardAlpha" operator="out"/>
<feColorMatrix type="matrix" values="0 0 0 0 0.716667 0 0 0 0 0.480764 0 0 0 0 0.598715 0 0 0 1 0"/>
<feBlend mode="normal" in2="BackgroundImageFix" result="effect1_dropShadow_417_82"/>
<feBlend mode="normal" in="SourceGraphic" in2="effect1_dropShadow_417_82" result="shape"/>
</filter>
<filter id="filter16_d_417_82" x="66.0555" y="351.723" width="167.472" height="167.702" filterUnits="userSpaceOnUse" color-interpolation-filters="sRGB">
<feFlood flood-opacity="0" result="BackgroundImageFix"/>
<feColorMatrix in="SourceAlpha" type="matrix" values="0 0 0 0 0 0 0 0 0 0 0 0 0 0 0 0 0 0 127 0" result="hardAlpha"/>
<feOffset/>
<feGaussianBlur stdDeviation="10"/>
<feComposite in2="hardAlpha" operator="out"/>
<feColorMatrix type="matrix" values="0 0 0 0 1 0 0 0 0 1 0 0 0 0 1 0 0 0 1 0"/>
<feBlend mode="normal" in2="BackgroundImageFix" result="effect1_dropShadow_417_82"/>
<feBlend mode="normal" in="SourceGraphic" in2="effect1_dropShadow_417_82" result="shape"/>
</filter>
</defs>
</svg>
