<svg width="522" height="522" viewBox="0 0 522 522" fill="none" xmlns="http://www.w3.org/2000/svg">
<g filter="url(#filter0_d_302_323)">
<g filter="url(#filter1_d_302_323)">
<path fill-rule="evenodd" clip-rule="evenodd" d="M265.027 107.129L275.115 78.1839L286.222 109.907L317.242 20.3801H337.38L295.804 139.75H276.478L265.027 107.129ZM282.035 58.3313L286.613 45.1947H301.65L296.941 58.3313H282.035Z" fill="#B77B99"/>
</g>
<g filter="url(#filter2_d_302_323)">
<path d="M287.804 20H267.665L236.646 109.527L205.301 20H185L226.901 139.37H246.228L287.804 20ZM247.364 57.9511L252.074 44.8146H221.055L225.602 57.9511H247.364Z" fill="white"/>
</g>
<g filter="url(#filter3_d_302_323)">
<path fill-rule="evenodd" clip-rule="evenodd" d="M367.228 371.654L380.562 399.255L350.276 384.677L391.647 469.916L377.408 484.156L322.398 370.35L336.064 356.684L367.228 371.654ZM389.707 418.186L395.758 430.712L385.125 441.345L379.167 428.726L389.707 418.186Z" fill="#B77B99"/>
</g>
<g filter="url(#filter4_d_302_323)">
<path d="M412.732 449.369L426.972 435.129L385.601 349.89L471.07 391.031L485.425 376.676L371.389 321.897L357.723 335.563L412.732 449.369ZM414.491 393.939L420.45 406.558L442.384 384.624L429.88 378.55L414.491 393.939Z" fill="white"/>
</g>
<g filter="url(#filter5_d_302_323)">
<path fill-rule="evenodd" clip-rule="evenodd" d="M372.654 155.197L400.255 141.863L385.677 172.149L470.916 130.778L485.156 145.017L371.35 200.026L357.684 186.361L372.654 155.197ZM419.186 132.718L431.712 126.666L442.345 137.299L429.726 143.258L419.186 132.718Z" fill="#B77B99"/>
</g>
<g filter="url(#filter6_d_302_323)">
<path d="M450.369 109.693L436.129 95.453L350.89 136.824L392.031 51.3549L377.676 37L322.897 151.036L336.563 164.702L450.369 109.693ZM394.939 107.934L407.558 101.975L385.624 80.0408L379.55 92.5452L394.939 107.934Z" fill="white"/>
</g>
<g filter="url(#filter7_d_302_323)">
<path fill-rule="evenodd" clip-rule="evenodd" d="M155.197 149.771L141.863 122.17L172.149 136.748L130.778 51.5083L145.017 37.2687L200.026 151.075L186.361 164.74L155.197 149.771ZM132.718 103.239L126.666 90.7127L137.3 80.0797L143.258 92.6987L132.718 103.239Z" fill="#B77B99"/>
</g>
<g filter="url(#filter8_d_302_323)">
<path d="M109.693 72.0555L95.453 86.2955L136.824 171.535L51.3549 130.394L37 144.749L151.036 199.528L164.702 185.862L109.693 72.0555ZM107.934 127.486L101.975 114.867L80.0408 136.801L92.5452 142.874L107.934 127.486Z" fill="white"/>
</g>
<g filter="url(#filter9_d_302_323)">
<path fill-rule="evenodd" clip-rule="evenodd" d="M414.621 265.027L443.567 275.115L411.843 286.222L501.37 317.242V337.379L382 295.804V276.477L414.621 265.027ZM463.419 282.034L476.556 286.613V301.65L463.419 296.941V282.034Z" fill="#B77B99"/>
</g>
<g filter="url(#filter10_d_302_323)">
<path d="M501.75 287.803V267.665L412.223 236.645L501.75 205.301V185L382.38 226.901V246.227L501.75 287.803ZM463.799 247.364L476.936 252.074V221.054L463.799 225.602V247.364Z" fill="white"/>
</g>
<g filter="url(#filter11_d_302_323)">
<path fill-rule="evenodd" clip-rule="evenodd" d="M257.353 414.621L247.264 443.567L236.158 411.843L205.138 501.37H185L226.576 382H245.902L257.353 414.621ZM240.345 463.419L235.767 476.556H220.729L225.439 463.419H240.345Z" fill="#B77B99"/>
</g>
<g filter="url(#filter12_d_302_323)">
<path d="M234.576 501.75H254.714L285.734 412.223L317.079 501.75H337.379L295.478 382.38H276.152L234.576 501.75ZM275.015 463.799L270.305 476.936H301.325L296.778 463.799H275.015Z" fill="white"/>
</g>
<g filter="url(#filter13_d_302_323)">
<path fill-rule="evenodd" clip-rule="evenodd" d="M107.129 257.353L78.1839 247.264L109.907 236.158L20.3801 205.138V185L139.75 226.576V245.902L107.129 257.353ZM58.3313 240.345L45.1947 235.767V220.729L58.3313 225.439V240.345Z" fill="#B77B99"/>
</g>
<g filter="url(#filter14_d_302_323)">
<path d="M20 234.576L20 254.714L109.527 285.734L20 317.079V337.379L139.37 295.478V276.152L20 234.576ZM57.9511 275.015L44.8146 270.305V301.325L57.9511 296.778L57.9511 275.015Z" fill="white"/>
</g>
<g filter="url(#filter15_d_302_323)">
<path fill-rule="evenodd" clip-rule="evenodd" d="M149.771 367.227L122.17 380.561L136.748 350.276L51.5085 391.647L37.2689 377.407L151.075 322.398L164.741 336.064L149.771 367.227ZM103.239 389.707L90.7128 395.758L80.0798 385.125L92.6989 379.166L103.239 389.707Z" fill="#B77B99"/>
</g>
<g filter="url(#filter16_d_302_323)">
<path d="M72.0555 412.732L86.2955 426.972L171.535 385.601L130.394 471.07L144.749 485.425L199.528 371.389L185.862 357.723L72.0555 412.732ZM127.486 414.491L114.867 420.45L136.801 442.384L142.874 429.88L127.486 414.491Z" fill="white"/>
</g>
</g>
<defs>
<filter id="filter0_d_302_323" x="10" y="14" width="501.75" height="501.75" filterUnits="userSpaceOnUse" color-interpolation-filters="sRGB">
<feFlood flood-opacity="0" result="BackgroundImageFix"/>
<feColorMatrix in="SourceAlpha" type="matrix" values="0 0 0 0 0 0 0 0 0 0 0 0 0 0 0 0 0 0 127 0" result="hardAlpha"/>
<feOffset dy="4"/>
<feGaussianBlur stdDeviation="5"/>
<feComposite in2="hardAlpha" operator="out"/>
<feColorMatrix type="matrix" values="0 0 0 0 0 0 0 0 0 0 0 0 0 0 0 0 0 0 0.25 0"/>
<feBlend mode="normal" in2="BackgroundImageFix" result="effect1_dropShadow_302_323"/>
<feBlend mode="normal" in="SourceGraphic" in2="effect1_dropShadow_302_323" result="shape"/>
</filter>
<filter id="filter1_d_302_323" x="245.027" y="0.380127" width="112.353" height="159.37" filterUnits="userSpaceOnUse" color-interpolation-filters="sRGB">
<feFlood flood-opacity="0" result="BackgroundImageFix"/>
<feColorMatrix in="SourceAlpha" type="matrix" values="0 0 0 0 0 0 0 0 0 0 0 0 0 0 0 0 0 0 127 0" result="hardAlpha"/>
<feOffset/>
<feGaussianBlur stdDeviation="10"/>
<feComposite in2="hardAlpha" operator="out"/>
<feColorMatrix type="matrix" values="0 0 0 0 0.716667 0 0 0 0 0.480764 0 0 0 0 0.598715 0 0 0 1 0"/>
<feBlend mode="normal" in2="BackgroundImageFix" result="effect1_dropShadow_302_323"/>
<feBlend mode="normal" in="SourceGraphic" in2="effect1_dropShadow_302_323" result="shape"/>
</filter>
<filter id="filter2_d_302_323" x="165" y="0" width="142.803" height="159.37" filterUnits="userSpaceOnUse" color-interpolation-filters="sRGB">
<feFlood flood-opacity="0" result="BackgroundImageFix"/>
<feColorMatrix in="SourceAlpha" type="matrix" values="0 0 0 0 0 0 0 0 0 0 0 0 0 0 0 0 0 0 127 0" result="hardAlpha"/>
<feOffset/>
<feGaussianBlur stdDeviation="10"/>
<feComposite in2="hardAlpha" operator="out"/>
<feColorMatrix type="matrix" values="0 0 0 0 1 0 0 0 0 1 0 0 0 0 1 0 0 0 1 0"/>
<feBlend mode="normal" in2="BackgroundImageFix" result="effect1_dropShadow_302_323"/>
<feBlend mode="normal" in="SourceGraphic" in2="effect1_dropShadow_302_323" result="shape"/>
</filter>
<filter id="filter3_d_302_323" x="302.398" y="336.684" width="113.36" height="167.472" filterUnits="userSpaceOnUse" color-interpolation-filters="sRGB">
<feFlood flood-opacity="0" result="BackgroundImageFix"/>
<feColorMatrix in="SourceAlpha" type="matrix" values="0 0 0 0 0 0 0 0 0 0 0 0 0 0 0 0 0 0 127 0" result="hardAlpha"/>
<feOffset/>
<feGaussianBlur stdDeviation="10"/>
<feComposite in2="hardAlpha" operator="out"/>
<feColorMatrix type="matrix" values="0 0 0 0 0.716667 0 0 0 0 0.480764 0 0 0 0 0.598715 0 0 0 1 0"/>
<feBlend mode="normal" in2="BackgroundImageFix" result="effect1_dropShadow_302_323"/>
<feBlend mode="normal" in="SourceGraphic" in2="effect1_dropShadow_302_323" result="shape"/>
</filter>
<filter id="filter4_d_302_323" x="337.723" y="301.897" width="167.702" height="167.472" filterUnits="userSpaceOnUse" color-interpolation-filters="sRGB">
<feFlood flood-opacity="0" result="BackgroundImageFix"/>
<feColorMatrix in="SourceAlpha" type="matrix" values="0 0 0 0 0 0 0 0 0 0 0 0 0 0 0 0 0 0 127 0" result="hardAlpha"/>
<feOffset/>
<feGaussianBlur stdDeviation="10"/>
<feComposite in2="hardAlpha" operator="out"/>
<feColorMatrix type="matrix" values="0 0 0 0 1 0 0 0 0 1 0 0 0 0 1 0 0 0 1 0"/>
<feBlend mode="normal" in2="BackgroundImageFix" result="effect1_dropShadow_302_323"/>
<feBlend mode="normal" in="SourceGraphic" in2="effect1_dropShadow_302_323" result="shape"/>
</filter>
<filter id="filter5_d_302_323" x="337.684" y="106.666" width="167.472" height="113.36" filterUnits="userSpaceOnUse" color-interpolation-filters="sRGB">
<feFlood flood-opacity="0" result="BackgroundImageFix"/>
<feColorMatrix in="SourceAlpha" type="matrix" values="0 0 0 0 0 0 0 0 0 0 0 0 0 0 0 0 0 0 127 0" result="hardAlpha"/>
<feOffset/>
<feGaussianBlur stdDeviation="10"/>
<feComposite in2="hardAlpha" operator="out"/>
<feColorMatrix type="matrix" values="0 0 0 0 0.716667 0 0 0 0 0.480764 0 0 0 0 0.598715 0 0 0 1 0"/>
<feBlend mode="normal" in2="BackgroundImageFix" result="effect1_dropShadow_302_323"/>
<feBlend mode="normal" in="SourceGraphic" in2="effect1_dropShadow_302_323" result="shape"/>
</filter>
<filter id="filter6_d_302_323" x="302.897" y="17" width="167.472" height="167.702" filterUnits="userSpaceOnUse" color-interpolation-filters="sRGB">
<feFlood flood-opacity="0" result="BackgroundImageFix"/>
<feColorMatrix in="SourceAlpha" type="matrix" values="0 0 0 0 0 0 0 0 0 0 0 0 0 0 0 0 0 0 127 0" result="hardAlpha"/>
<feOffset/>
<feGaussianBlur stdDeviation="10"/>
<feComposite in2="hardAlpha" operator="out"/>
<feColorMatrix type="matrix" values="0 0 0 0 1 0 0 0 0 1 0 0 0 0 1 0 0 0 1 0"/>
<feBlend mode="normal" in2="BackgroundImageFix" result="effect1_dropShadow_302_323"/>
<feBlend mode="normal" in="SourceGraphic" in2="effect1_dropShadow_302_323" result="shape"/>
</filter>
<filter id="filter7_d_302_323" x="106.666" y="17.2688" width="113.36" height="167.472" filterUnits="userSpaceOnUse" color-interpolation-filters="sRGB">
<feFlood flood-opacity="0" result="BackgroundImageFix"/>
<feColorMatrix in="SourceAlpha" type="matrix" values="0 0 0 0 0 0 0 0 0 0 0 0 0 0 0 0 0 0 127 0" result="hardAlpha"/>
<feOffset/>
<feGaussianBlur stdDeviation="10"/>
<feComposite in2="hardAlpha" operator="out"/>
<feColorMatrix type="matrix" values="0 0 0 0 0.716667 0 0 0 0 0.480764 0 0 0 0 0.598715 0 0 0 1 0"/>
<feBlend mode="normal" in2="BackgroundImageFix" result="effect1_dropShadow_302_323"/>
<feBlend mode="normal" in="SourceGraphic" in2="effect1_dropShadow_302_323" result="shape"/>
</filter>
<filter id="filter8_d_302_323" x="17" y="52.0554" width="167.702" height="167.472" filterUnits="userSpaceOnUse" color-interpolation-filters="sRGB">
<feFlood flood-opacity="0" result="BackgroundImageFix"/>
<feColorMatrix in="SourceAlpha" type="matrix" values="0 0 0 0 0 0 0 0 0 0 0 0 0 0 0 0 0 0 127 0" result="hardAlpha"/>
<feOffset/>
<feGaussianBlur stdDeviation="10"/>
<feComposite in2="hardAlpha" operator="out"/>
<feColorMatrix type="matrix" values="0 0 0 0 1 0 0 0 0 1 0 0 0 0 1 0 0 0 1 0"/>
<feBlend mode="normal" in2="BackgroundImageFix" result="effect1_dropShadow_302_323"/>
<feBlend mode="normal" in="SourceGraphic" in2="effect1_dropShadow_302_323" result="shape"/>
</filter>
<filter id="filter9_d_302_323" x="362" y="245.027" width="159.37" height="112.353" filterUnits="userSpaceOnUse" color-interpolation-filters="sRGB">
<feFlood flood-opacity="0" result="BackgroundImageFix"/>
<feColorMatrix in="SourceAlpha" type="matrix" values="0 0 0 0 0 0 0 0 0 0 0 0 0 0 0 0 0 0 127 0" result="hardAlpha"/>
<feOffset/>
<feGaussianBlur stdDeviation="10"/>
<feComposite in2="hardAlpha" operator="out"/>
<feColorMatrix type="matrix" values="0 0 0 0 0.716667 0 0 0 0 0.480764 0 0 0 0 0.598715 0 0 0 1 0"/>
<feBlend mode="normal" in2="BackgroundImageFix" result="effect1_dropShadow_302_323"/>
<feBlend mode="normal" in="SourceGraphic" in2="effect1_dropShadow_302_323" result="shape"/>
</filter>
<filter id="filter10_d_302_323" x="362.38" y="165" width="159.37" height="142.803" filterUnits="userSpaceOnUse" color-interpolation-filters="sRGB">
<feFlood flood-opacity="0" result="BackgroundImageFix"/>
<feColorMatrix in="SourceAlpha" type="matrix" values="0 0 0 0 0 0 0 0 0 0 0 0 0 0 0 0 0 0 127 0" result="hardAlpha"/>
<feOffset/>
<feGaussianBlur stdDeviation="10"/>
<feComposite in2="hardAlpha" operator="out"/>
<feColorMatrix type="matrix" values="0 0 0 0 1 0 0 0 0 1 0 0 0 0 1 0 0 0 1 0"/>
<feBlend mode="normal" in2="BackgroundImageFix" result="effect1_dropShadow_302_323"/>
<feBlend mode="normal" in="SourceGraphic" in2="effect1_dropShadow_302_323" result="shape"/>
</filter>
<filter id="filter11_d_302_323" x="165" y="362" width="112.353" height="159.37" filterUnits="userSpaceOnUse" color-interpolation-filters="sRGB">
<feFlood flood-opacity="0" result="BackgroundImageFix"/>
<feColorMatrix in="SourceAlpha" type="matrix" values="0 0 0 0 0 0 0 0 0 0 0 0 0 0 0 0 0 0 127 0" result="hardAlpha"/>
<feOffset/>
<feGaussianBlur stdDeviation="10"/>
<feComposite in2="hardAlpha" operator="out"/>
<feColorMatrix type="matrix" values="0 0 0 0 0.716667 0 0 0 0 0.480764 0 0 0 0 0.598715 0 0 0 1 0"/>
<feBlend mode="normal" in2="BackgroundImageFix" result="effect1_dropShadow_302_323"/>
<feBlend mode="normal" in="SourceGraphic" in2="effect1_dropShadow_302_323" result="shape"/>
</filter>
<filter id="filter12_d_302_323" x="214.576" y="362.38" width="142.803" height="159.37" filterUnits="userSpaceOnUse" color-interpolation-filters="sRGB">
<feFlood flood-opacity="0" result="BackgroundImageFix"/>
<feColorMatrix in="SourceAlpha" type="matrix" values="0 0 0 0 0 0 0 0 0 0 0 0 0 0 0 0 0 0 127 0" result="hardAlpha"/>
<feOffset/>
<feGaussianBlur stdDeviation="10"/>
<feComposite in2="hardAlpha" operator="out"/>
<feColorMatrix type="matrix" values="0 0 0 0 1 0 0 0 0 1 0 0 0 0 1 0 0 0 1 0"/>
<feBlend mode="normal" in2="BackgroundImageFix" result="effect1_dropShadow_302_323"/>
<feBlend mode="normal" in="SourceGraphic" in2="effect1_dropShadow_302_323" result="shape"/>
</filter>
<filter id="filter13_d_302_323" x="0.380127" y="165" width="159.37" height="112.353" filterUnits="userSpaceOnUse" color-interpolation-filters="sRGB">
<feFlood flood-opacity="0" result="BackgroundImageFix"/>
<feColorMatrix in="SourceAlpha" type="matrix" values="0 0 0 0 0 0 0 0 0 0 0 0 0 0 0 0 0 0 127 0" result="hardAlpha"/>
<feOffset/>
<feGaussianBlur stdDeviation="10"/>
<feComposite in2="hardAlpha" operator="out"/>
<feColorMatrix type="matrix" values="0 0 0 0 0.716667 0 0 0 0 0.480764 0 0 0 0 0.598715 0 0 0 1 0"/>
<feBlend mode="normal" in2="BackgroundImageFix" result="effect1_dropShadow_302_323"/>
<feBlend mode="normal" in="SourceGraphic" in2="effect1_dropShadow_302_323" result="shape"/>
</filter>
<filter id="filter14_d_302_323" x="0" y="214.576" width="159.37" height="142.803" filterUnits="userSpaceOnUse" color-interpolation-filters="sRGB">
<feFlood flood-opacity="0" result="BackgroundImageFix"/>
<feColorMatrix in="SourceAlpha" type="matrix" values="0 0 0 0 0 0 0 0 0 0 0 0 0 0 0 0 0 0 127 0" result="hardAlpha"/>
<feOffset/>
<feGaussianBlur stdDeviation="10"/>
<feComposite in2="hardAlpha" operator="out"/>
<feColorMatrix type="matrix" values="0 0 0 0 1 0 0 0 0 1 0 0 0 0 1 0 0 0 1 0"/>
<feBlend mode="normal" in2="BackgroundImageFix" result="effect1_dropShadow_302_323"/>
<feBlend mode="normal" in="SourceGraphic" in2="effect1_dropShadow_302_323" result="shape"/>
</filter>
<filter id="filter15_d_302_323" x="17.2688" y="302.398" width="167.472" height="113.36" filterUnits="userSpaceOnUse" color-interpolation-filters="sRGB">
<feFlood flood-opacity="0" result="BackgroundImageFix"/>
<feColorMatrix in="SourceAlpha" type="matrix" values="0 0 0 0 0 0 0 0 0 0 0 0 0 0 0 0 0 0 127 0" result="hardAlpha"/>
<feOffset/>
<feGaussianBlur stdDeviation="10"/>
<feComposite in2="hardAlpha" operator="out"/>
<feColorMatrix type="matrix" values="0 0 0 0 0.716667 0 0 0 0 0.480764 0 0 0 0 0.598715 0 0 0 1 0"/>
<feBlend mode="normal" in2="BackgroundImageFix" result="effect1_dropShadow_302_323"/>
<feBlend mode="normal" in="SourceGraphic" in2="effect1_dropShadow_302_323" result="shape"/>
</filter>
<filter id="filter16_d_302_323" x="52.0555" y="337.723" width="167.472" height="167.702" filterUnits="userSpaceOnUse" color-interpolation-filters="sRGB">
<feFlood flood-opacity="0" result="BackgroundImageFix"/>
<feColorMatrix in="SourceAlpha" type="matrix" values="0 0 0 0 0 0 0 0 0 0 0 0 0 0 0 0 0 0 127 0" result="hardAlpha"/>
<feOffset/>
<feGaussianBlur stdDeviation="10"/>
<feComposite in2="hardAlpha" operator="out"/>
<feColorMatrix type="matrix" values="0 0 0 0 1 0 0 0 0 1 0 0 0 0 1 0 0 0 1 0"/>
<feBlend mode="normal" in2="BackgroundImageFix" result="effect1_dropShadow_302_323"/>
<feBlend mode="normal" in="SourceGraphic" in2="effect1_dropShadow_302_323" result="shape"/>
</filter>
</defs>
</svg>
